<svg width="40" height="40" xmlns="http://www.w3.org/2000/svg">
 <!-- Created with SVG-edit - http://svg-edit.googlecode.com/ -->
 <g>
  <title>Layer 1</title>
  <rect id="svg_25" height="40.25" width="40.125" y="-0.25" x="-0.0625" stroke-linecap="null" stroke-linejoin="null" stroke-width="0" stroke="#000000" fill="#000000"/>
  <path d="m10.4375,14.75c-0.125,0 -0.27325,-0.03843 -0.5,0.125c-0.14341,0.10336 -0.39664,0.23159 -0.5,0.375c-0.16343,0.22675 -0.39878,0.36019 -0.625,0.75c-0.14029,0.24175 -0.35077,0.75381 -0.5,1.625c-0.21522,1.25645 -0.25,1.625 -0.25,1.875c0,0.125 0,0.25 0,0.625c0,0.375 -0.08281,0.91375 0.125,1.25c0.09294,0.15038 0.23159,0.27164 0.375,0.375c0.22675,0.16343 0.36677,0.26804 0.625,0.375c0.3652,0.15127 0.60297,0.18578 0.875,0.25c0.36497,0.08616 0.60297,0.06078 0.875,0.125c0.24331,0.05744 0.75,0 1,0c0.25,0 0.625,0 0.875,0c0.375,0 0.73482,-0.06168 1.125,-0.125c0.37016,-0.06007 0.60982,-0.06168 1,-0.125c0.12339,-0.02002 0.28661,-0.03661 0.375,-0.125c0.17678,-0.17678 0.18578,-0.22797 0.25,-0.5c0.05744,-0.24331 0.31078,-0.97797 0.375,-1.25c0.02872,-0.12166 0.18578,-0.35297 0.25,-0.625c0.05744,-0.24331 0.125,-0.75 0.125,-1.125c0,-0.375 0,-0.625 0,-0.75c0,-0.125 -0.1194,-0.44364 -0.25,-0.875c-0.03622,-0.11964 -0.03661,-0.16161 -0.125,-0.25c-0.17678,-0.17678 -0.30236,-0.92736 -0.5,-1.125c-0.19764,-0.19764 -0.57322,-0.19822 -0.75,-0.375c-0.08839,-0.08839 -0.12661,-0.10498 -0.25,-0.125c-0.39018,-0.06332 -0.60297,-0.18578 -0.875,-0.25c-0.12166,-0.02872 -0.375,-0.125 -0.5,-0.125c-0.125,0 -0.25,0 -0.375,0c-0.125,0 -0.37834,0.02872 -0.5,0c-0.27203,-0.06422 -0.5,-0.125 -0.625,-0.125c-0.125,0 -0.25,0 -0.375,0c-0.125,0 -0.25,0 -0.375,0l-0.125,0" id="svg_26" stroke-linecap="null" stroke-linejoin="null" stroke="#ffffff" fill="none"/>
  <path d="m16.0625,19.5c0.25,0 0.7461,-0.18745 2.25,-0.25c0.99914,-0.04156 2,0 2.875,0c1.125,0 2.37709,0.10744 3.5,0.25c0.87685,0.11132 1.42651,0.12107 1.875,0.375c0.46149,0.26129 0.55605,0.47571 0.75,1c0.17881,0.48338 0.33818,0.91827 0.625,1.125c0.22675,0.16343 0.30236,0.17736 0.5,0.375c0.19764,0.19764 0.23517,0.87815 0.375,1.5c0.11307,0.50283 0.16384,0.76003 0.25,1.125c0.06422,0.27203 0.125,0.75 0.125,1c0,0.125 -0.125,0.75 -0.25,1c-0.125,0.25 -0.32716,0.63452 -0.375,0.75c-0.20295,0.48996 -0.5,0.5 -0.625,0.625c-0.125,0.125 -0.49177,0.64304 -0.75,0.75c-0.3652,0.15127 -0.75323,0.33496 -1,0.375c-0.39018,0.06332 -0.75,0.25 -1.125,0.25c-0.5,0 -0.75,0 -1.125,0c-0.625,0 -0.875,0 -1.875,0c-0.375,0 -1.5,0 -1.875,0c-0.125,0 -0.375,0 -0.75,0c-0.125,0 -0.375,0 -0.5,0c-0.25,0 -0.60242,-0.02769 -0.75,-0.125c-0.56197,-0.37056 -0.83818,-0.41827 -1.125,-0.625c-0.4535,-0.32686 -1,-0.5 -1.125,-0.625c-0.125,-0.125 -0.83668,-0.55735 -1,-0.625c-0.11549,-0.04784 -0.20371,0.04689 -0.625,-0.25c-0.3684,-0.25962 -0.58926,-0.90146 -0.875,-1.25c-0.11207,-0.13671 -0.43993,-0.50484 -0.5,-0.875c-0.06332,-0.39018 -0.25,-1.25 -0.25,-1.5l0,-0.5l0,-0.125l0,-0.125" id="svg_28" stroke-linecap="null" stroke-linejoin="null" stroke="#ffffff" fill="none"/>
  <path d="m33.1875,10.5c0,0.125 0,0.25 0,0.375c0,0.125 0,0.25 0,0.375c0,0.125 0,0.5 0,1c0,0.375 0,0.75 0,0.875c0,0.25 0,0.375 0,0.5c0,0.75 0,1.125 0,1.5c0,0.125 0.06338,0.40425 -0.25,1c-0.20982,0.39887 -0.49906,0.72695 -0.625,1.75c-0.01527,0.12406 -0.09873,0.2598 -0.25,0.625c-0.10696,0.25823 -0.30255,0.88573 -0.375,1.125c-0.1306,0.43136 -0.3848,0.34873 -0.75,0.5c-0.25823,0.10696 -0.48785,0.27802 -0.75,0.375c-0.48338,0.17881 -0.54836,0.2397 -0.875,0.375c-0.23097,0.09567 -0.375,0 -0.5,0l-0.25,0.125l-0.25,0.125l-0.375,0" id="svg_29" stroke-linecap="null" stroke-linejoin="null" stroke="#ffffff" fill="none"/>
  <path d="m11.3125,32.25c0,0 0,-0.125 0,-0.25c0,-0.25 0,-0.375 0,-0.875c0,-0.125 0.07716,-0.25952 0.125,-0.375c0.06765,-0.16332 0.14664,-0.35659 0.25,-0.5c0.16343,-0.22675 0.125,-0.375 0.125,-0.375c0,-0.125 0.28661,-0.28661 0.375,-0.375c0.08839,-0.08839 0.16161,-0.03661 0.25,-0.125c0.08839,-0.08839 0.22805,-0.26224 0.375,-0.5c0.06572,-0.10633 0.15303,-0.36285 0.25,-0.625c0.17881,-0.48338 0.16161,-0.66161 0.25,-0.75c0.08839,-0.08839 0,-0.25 0.125,-0.375l0,-0.125l0.125,-0.25" id="svg_30" stroke-linecap="null" stroke-linejoin="null" stroke="#ffffff" fill="none"/>
  <path d="m15.5625,33c0,-0.5 -0.17231,-1.14506 0,-1.875c0.06422,-0.27203 0.125,-0.375 0.125,-0.5c0,-0.25 0.05735,-0.33668 0.125,-0.5c0.14351,-0.34645 0,-0.625 0,-0.75c0,-0.25 0.125,-0.5 0.125,-0.625l0.125,0" id="svg_31" stroke-linecap="null" stroke-linejoin="null" stroke="#ffffff" fill="none"/>
  <path d="m25.9375,33c0,-0.125 0,-0.5 0,-0.75c0,-0.125 -0.08616,-0.26003 0,-0.625c0.06422,-0.27203 0.125,-0.5 0.125,-0.625c0,-0.125 0.08839,-0.28661 0,-0.375c-0.08839,-0.08839 -0.125,-0.25 -0.125,-0.5l0,-0.125" id="svg_32" stroke-linecap="null" stroke-linejoin="null" stroke="#ffffff" fill="none"/>
  <path d="m31.4375,31.625c0,-0.25 -0.07716,-0.50952 -0.125,-0.625c-0.06765,-0.16332 -0.36797,-0.63456 -0.875,-1c-0.32067,-0.23113 -0.53661,-0.41161 -0.625,-0.5c-0.08839,-0.08839 -0.25,-0.125 -0.5,-0.375c-0.25,-0.25 -0.41161,-0.16161 -0.5,-0.25c-0.08839,-0.08839 -0.125,-0.125 -0.375,-0.125l-0.25,-0.125l-0.125,0l0,-0.125" id="svg_33" stroke-linecap="null" stroke-linejoin="null" stroke="#ffffff" fill="none"/>
  <path d="m8.8125,15.375c0,-0.375 0,-0.625 0,-0.875c0,-0.125 -0.16789,-1.10951 -0.375,-1.75c-0.15857,-0.49039 -0.125,-0.625 -0.125,-1c0,-0.125 0,-0.375 0.125,-0.25c0.125,0.125 0.30236,0.17736 0.5,0.375c0.19764,0.19764 0.30735,0.46168 0.375,0.625c0.04784,0.11549 0.10659,0.27164 0.25,0.375c0.22675,0.16343 0.25,0.25 0.375,0.25c0.125,0 0.16161,0.03661 0.25,0.125c0.08839,0.08839 0.03661,0.28661 0.125,0.375c0.08839,0.08839 0.16161,0.16161 0.25,0.25c0.08839,0.08839 0,0.25 0,0.375c0,0.125 0,0.25 0,0.375l0,0.125" id="svg_34" stroke-linecap="null" stroke-linejoin="null" stroke="#ffffff" fill="none"/>
  <path d="m14.4375,15.25c0,-0.125 -0.03843,-0.27325 0.125,-0.5c0.10336,-0.14341 0.26293,-0.36329 0.375,-0.5c0.57147,-0.69708 1.18131,-1.68131 1.5,-2c0.31869,-0.31869 0.78875,-0.54219 1.125,-0.75c0.15038,-0.09294 0.125,0.25 0,0.5c-0.25,0.5 -0.375,0.625 -0.375,0.75c0,0.125 -0.01804,0.24177 -0.125,0.5c-0.15127,0.3652 -0.18578,0.72797 -0.25,1c-0.05744,0.24331 0.17678,0.44822 0,0.625c-0.08839,0.08839 -0.05928,0.14367 -0.125,0.25c-0.14695,0.23776 -0.30735,0.21168 -0.375,0.375c-0.04784,0.11549 0,0.375 0,0.5l-0.125,0.125l0,0.125l0,0.125" id="svg_35" stroke-linecap="null" stroke-linejoin="null" stroke="#ffffff" fill="none"/>
  <path d="m10.4375,16.875c0,0 -0.16161,-0.08839 -0.25,0c-0.08839,0.08839 -0.31765,0.21168 -0.25,0.375c0.04784,0.11548 0.125,0.125 0.25,0.125c0.125,0 0.25,0 0.5,0l0.125,0" id="svg_36" stroke-linecap="null" stroke-linejoin="null" stroke="#ffffff" fill="none"/>
  <path d="m13.3125,16.875c0,0 0,0 0,0.125c0,0.125 0.125,0.125 0.25,0.125l0,0.125l0.125,0l0.125,0" id="svg_37" stroke-linecap="null" stroke-linejoin="null" stroke="#ffffff" fill="none"/>
  <path d="m10.1875,20.25c0.25,0 0.35297,0.06078 0.625,0.125c0.12166,0.02872 0.375,0 0.5,0c0.125,0 0.25,0 0.375,0c0.125,0 0.25,0 0.375,0c0.125,0 0.25,0 0.375,0c0.125,0 0.28661,0.08839 0.375,0c0.08839,-0.08839 0.125,-0.125 0.25,-0.25l0.125,0l0,-0.125" id="svg_38" stroke-linecap="null" stroke-linejoin="null" stroke="#ffffff" fill="none"/>
 </g>
</svg>
