<svg width="40" height="40" xmlns="http://www.w3.org/2000/svg">
 <!-- Created with SVG-edit - http://svg-edit.googlecode.com/ -->
 <g>
  <title>Layer 1</title>
  <path d="m9.6243,31.875c0,0 -0.09105,-0.00099 -0.10572,-0.10265c-0.10675,-0.74011 -0.37414,-1.44896 -0.63431,-2.36105c-0.62467,-2.18989 -0.97138,-2.76588 -1.05719,-3.07962c-0.27672,-1.0118 -0.51714,-2.90004 -0.74003,-3.59289c-0.14097,-0.4382 -0.42287,-0.71858 -0.42287,-0.82123c0,-0.10265 -0.19148,-0.14528 -0.10572,-0.20531c0.27121,-0.18981 0.60611,0.2292 1.1629,0.82123c0.90737,0.9648 1.80281,1.73794 2.64296,2.36105c0.95792,0.71045 1.71291,1.50914 3.48871,3.38759c0.70772,0.74863 1.06753,1.11117 1.26862,1.23185c0.08993,0.05397 -0.06215,-0.42857 -0.52859,-1.43716c-0.38736,-0.83759 -1.10035,-2.24416 -1.69149,-4.00351c-0.34235,-1.01888 -0.47248,-1.46841 -0.63431,-1.84777c-0.11443,-0.26825 -0.22614,-0.51062 -0.31715,-1.02654c-0.12621,-0.71545 -0.21144,-1.43716 -0.21144,-1.74512c0,-0.10265 0.00805,-0.24459 0.10572,-0.20531c0.27626,0.11111 0.76234,0.58014 1.48006,1.02654c0.76579,0.47631 1.45501,0.8603 2.11437,1.23185c0.40892,0.23043 0.79821,0.57909 1.05718,1.02654c0.27892,0.48192 0.46377,1.32605 0.74003,1.43716c0.09767,0.03928 0.11377,0.16602 0.21144,0.20531c0.13813,0.05556 0.21144,0.30796 0.31716,0.51327l0.10572,0.20531l0.10572,0.30796l0.21144,0" id="svg_18" stroke-linecap="null" stroke-linejoin="null" stroke="#000000" fill="none"/>
  <path d="m17.9375,22.375c0.125,0 0.27164,0.01841 0.375,-0.125c0.16343,-0.22675 0.34873,-0.3848 0.5,-0.75c0.10696,-0.25823 0.27646,-0.46427 0.625,-0.75c0.13671,-0.11207 0.30735,-0.21168 0.375,-0.375c0.04784,-0.11548 0.04867,-0.64491 -0.125,-1c-0.19801,-0.40487 -0.375,-0.625 -0.5,-0.625c-0.25,0 -0.39367,-0.06572 -0.5,0c-0.23776,0.14695 -0.25,0.25 -0.375,0.375c-0.125,0.125 -0.07716,0.25952 -0.125,0.375c-0.1353,0.32664 -0.25,0.375 -0.5,0.625c-0.125,0.125 -0.25,0.125 -0.25,0.25c0,0.125 0,0.375 0,0.75c0,0.375 0.09628,0.62834 0.125,0.75c0.06422,0.27203 0.32673,0.28712 0.625,0.625c0.18498,0.20954 0.27325,0.33657 0.5,0.5c0.14341,0.10336 0.17736,0.42736 0.375,0.625c0.19764,0.19764 0.375,0.25 0.5,0.25c0.125,0 0.25,0 0.5,0c0.375,0 0.79705,0.11496 1,-0.375c0.04784,-0.11548 0.30735,-0.33668 0.375,-0.5c0.04784,-0.11548 0.125,-0.25 0.125,-0.375l0.125,0l0,-0.125l0.125,0" id="svg_19" stroke-linecap="null" stroke-linejoin="null" stroke="#000000" fill="none"/>
  <path d="m22.8125,16.75c-0.125,0 -0.25,-0.125 -0.375,-0.125c-0.125,0 -0.25,0 -0.375,0c-0.125,0 -0.07716,0.13451 -0.125,0.25c-0.06765,0.16332 -0.20216,0.25951 -0.25,0.375c-0.06765,0.16332 -0.125,0.25 -0.125,0.625c0,0.25 0,0.375 0,0.625c0,0.25 -0.03843,0.64825 0.125,0.875c0.10336,0.14341 0.375,0.375 0.5,0.625c0.5,1 0.80735,1.21168 0.875,1.375c0.04784,0.11548 0.13452,0.29784 0.25,0.25c0.16332,-0.06765 0.25,-0.625 0.5,-1c0.25,-0.375 0.4255,-0.67645 1,-1.125c0.27867,-0.21758 0.34567,-0.39403 0.25,-0.625c-0.06765,-0.16332 -0.29219,-0.66375 -0.5,-1c-0.09294,-0.15038 -0.14825,-0.21157 -0.375,-0.375c-0.14341,-0.10336 -0.28661,-0.03661 -0.375,-0.125c-0.08839,-0.08839 -0.25,-0.125 -0.375,-0.125c-0.125,0 -0.25,0 -0.375,0l-0.125,0l0,0.125" id="svg_20" stroke-linecap="null" stroke-linejoin="null" stroke="#000000" fill="none"/>
  <path d="m23.6875,14.125c0.1152,0 0.19508,0.05735 0.34559,0.125c0.21285,0.09567 0.74051,1.42792 1.26716,2.125c0.51642,0.68354 1.62499,1.18734 2.30392,1.875c0.30363,0.30753 0.23039,0.75 0.46078,0.75c0.11519,0 0,-0.375 0,-0.75c0,-0.625 -0.32138,-2.0098 -0.46078,-2.375c-0.09858,-0.25823 -0.22182,-0.57758 -0.46078,-1.375c-0.21669,-0.72307 -0.40275,-1.36347 -0.46078,-1.875c-0.01408,-0.12406 0.25478,-0.16074 0.57598,0.125c0.25197,0.22415 0.71112,0.73159 0.80637,0.875c0.15061,0.22675 0.23039,0.375 0.34558,0.375c0.1152,0 0.23039,0 0.34559,0c0.1152,0 0.27496,0.2397 0.57598,0.375c0.10643,0.04784 0.23039,0 0.23039,-0.125c0,-0.375 -0.03579,-0.88503 -0.1152,-1.25c-0.05918,-0.27203 -0.14474,-0.34962 -0.23039,-0.5c-0.38303,-0.6725 -0.40244,-1.10982 -0.46078,-1.5c-0.01845,-0.12339 0,-0.25 -0.1152,-0.25l0,-0.125l-0.1152,0l-0.1152,0" id="svg_21" stroke-linecap="null" stroke-linejoin="null" stroke="#000000" fill="none"/>
  <path d="m24.0625,9.25c0,0 -0.125,0 -0.5,0c-0.375,0 -1,0 -1.625,0c-0.875,0 -2.00505,0.01274 -3.25,0.125c-1.3919,0.12551 -2.51033,0.33681 -3.5,0.625c-0.75904,0.22103 -1.48607,0.52426 -2.125,0.875c-0.49004,0.269 -1.07816,0.9267 -1.625,1.375c-0.34854,0.28574 -0.80631,0.55631 -1.125,0.875c-0.31869,0.31869 -0.61019,0.52378 -1,0.75c-0.24175,0.14029 -0.67012,0.64278 -0.875,1.375c-0.18138,0.64825 -0.66827,1.71318 -0.875,2c-0.16343,0.22675 -0.71318,0.54327 -1,0.75c-0.22675,0.16343 -0.91107,0.85854 -1.125,1.375c-0.45381,1.09559 -0.68319,1.60476 -0.875,2.25c-0.36324,1.22191 -0.25,1.875 -0.25,2.875c0,0.125 0,0.375 0,0.75c0,0.375 0.06078,0.72797 0.125,1c0.05744,0.24331 0.24878,1.22378 0.375,2.125c0.05201,0.37138 0.04327,0.58818 0.25,0.875c0.16343,0.22675 0.25,0.5 0.375,0.75c0.375,0.75 0.76224,1.22805 1,1.375c0.53166,0.32858 1.09549,0.44098 1.375,1c0.1118,0.22361 0.33926,0.65146 0.625,1c0.22415,0.27342 1.24296,0.77354 1.625,0.875c0.61602,0.16359 1.01003,0.16384 1.375,0.25c0.27203,0.06422 1,0.125 1.5,0.125c0.875,0 1.64403,0.09567 1.875,0c0.32664,-0.1353 0.53444,-0.46085 1.25,-1.125c0.78813,-0.73151 4.73522,-2.0329 6.125,-2.875c1.66993,-1.01185 2.43064,-2.56523 3.375,-3.5c1.63809,-1.62146 2.65187,-1.93631 3.625,-2.875c2.77147,-2.6734 2.63828,-3.82411 3.25,-4.625c0.1073,-0.14049 0.16161,-0.16161 0.25,-0.25c0.17678,-0.17678 -0.21124,-0.52745 0.25,-3.25c0.17217,-1.0163 0.375,-2.125 0.375,-2.625c0,-0.375 -0.125,-0.875 -0.375,-1.125c-0.875,-0.875 -2.14344,-2.59563 -3.75,-3.625c-1.13844,-0.72943 -4.26093,-3.59924 -4.875,-3.875c-1.01991,-0.45801 -2.52683,-1.45524 -5.25,-0.5c-0.85057,0.29837 -1.7859,2.26886 -4.75,3.625c-1.18673,0.54296 -3.25,1.75 -3.875,2.625l-1,1.5l-0.625,0.625" id="svg_22" stroke-linecap="null" stroke-linejoin="null" stroke="#000000" fill="none"/>
 </g>
</svg>
