<svg width="40" height="40" xmlns="http://www.w3.org/2000/svg">
 <!-- Created with SVG-edit - http://svg-edit.googlecode.com/ -->
 <g>
  <title>Layer 1</title>
  <path d="m8.6875,13.75c0,0 -0.16161,0.08839 -0.25,0c-0.08839,-0.08839 -0.34946,-0.51139 -0.75,-1.375c-0.35281,-0.76069 -0.80735,-1.33668 -0.875,-1.5c-0.04784,-0.11549 -0.10498,-0.12661 -0.125,-0.25c-0.12664,-0.78036 -0.46426,-1.52646 -0.75,-1.875c-0.22415,-0.27342 -0.46339,-0.53661 -0.375,-0.625c0.08839,-0.08839 0.36479,0.01402 0.875,0.375c0.36792,0.26031 0.9508,0.81863 1.625,1.25c0.47088,0.30128 2.02325,0.83657 2.25,1c0.14341,0.10336 0.89825,0.33657 1.125,0.5c0.14341,0.10336 0.375,0.125 0.75,0.25l0.25,0.125" id="svg_1" stroke="#000000" fill="none"/>
  <path d="m19.4375,12.375c0.25,-0.125 0.46872,-0.40914 0.875,-0.75c1.16891,-0.9807 1.65964,-1.1535 2.125,-1.375c0.56434,-0.26861 0.82425,-0.56413 1.125,-0.75c0.6725,-0.41563 1.125,-0.625 1.625,-1.125c0.625,-0.625 1.58987,-1.66378 2,-2c0.34854,-0.28574 0.98482,-0.68668 1.375,-0.75c0.12339,-0.02002 0.08921,0.25802 0,0.75c-0.19056,1.05086 -0.63509,1.37307 -0.75,2c-0.13708,0.74789 -1.021,3.36504 -1.25,3.875c-0.27576,0.61407 -0.875,2.5 -1,2.75l-0.25,0.375l0,0.125" id="svg_2" stroke="#000000" fill="none"/>
  <path d="m14.1875,11.25c-0.125,0 -0.25669,-0.05744 -0.5,0c-0.27203,0.06422 -0.625,0.125 -0.75,0.125c-0.125,0 -0.25669,0.06756 -0.5,0.125c-0.27203,0.06422 -0.36857,0.16234 -0.5,0.375c-0.14695,0.23776 -0.35973,0.12594 -0.375,0.25c-0.06297,0.51153 -0.30199,0.84513 -0.5,1.25c-0.17367,0.35509 -0.21426,0.52646 -0.5,0.875c-0.11207,0.13671 -0.125,0.375 -0.375,0.875c-0.125,0.25 -0.29219,0.66375 -0.5,1c-0.09294,0.15038 -0.30735,0.21168 -0.375,0.375c-0.04784,0.11548 -0.02354,0.24296 -0.125,0.625c-0.16359,0.61603 -0.02933,0.76903 -0.125,1c-0.06765,0.16332 -0.125,0.25 -0.125,0.375c0,0.125 0.06229,0.49224 0.125,1.25c0.02062,0.24915 0,0.5 0,0.625c0,0.125 0.31078,0.47797 0.375,0.75c0.02872,0.12166 0.29219,0.78875 0.5,1.125c0.37175,0.6015 0.55928,0.51867 0.625,0.625c0.14695,0.23776 0.38451,0.20216 0.5,0.25c0.32664,0.1353 0.3405,0.27784 0.75,0.75c0.11582,0.13355 0.08926,0.40146 0.375,0.75c0.22415,0.27342 0.46318,0.54327 0.75,0.75c0.22675,0.16343 0.75,0.375 1,0.5c0.25,0.125 0.99127,0.29244 1.5,0.375c1.60876,0.26106 2.125,0.25 2.375,0.25c0.25,0 0.5,0 0.625,0c0.5,0 0.75063,0.01772 1,0c0.88166,-0.06266 1.125,-0.25 1.375,-0.5c0.25,-0.25 0.75,-0.875 1,-1.375c0.125,-0.25 0.71168,-0.68235 0.875,-0.75c0.23097,-0.09567 0.55735,-0.21168 0.625,-0.375c0.14351,-0.34645 0.16789,-0.85951 0.375,-1.5c0.15857,-0.49039 0.17755,-0.76073 0.25,-1c0.1306,-0.43136 0.25,-0.5 0.25,-0.75c0,-0.125 0,-0.25 0,-0.375c0,-0.5 0.03661,-0.66161 0.125,-0.75c0.08839,-0.08839 0,-0.375 0,-0.625c0,-0.125 -0.05381,-0.64162 0.125,-1.125c0.09698,-0.26215 0.125,-0.625 0.125,-0.75c0,-0.75 -0.24656,-1.45594 -0.375,-2c-0.02872,-0.12166 -0.25,-0.375 -0.375,-0.5c-0.125,-0.125 -0.21378,-0.25536 -0.25,-0.375c-0.1306,-0.43136 -0.50952,-0.82716 -0.625,-0.875c-0.16332,-0.06765 -0.375,-0.25 -0.875,-0.5c-0.5,-0.25 -1,-0.25 -1.125,-0.25c-0.125,0 -0.25,0 -0.375,0c-0.5,0 -1.10297,-0.18578 -1.375,-0.25c-0.24331,-0.05744 -0.48482,-0.06168 -0.875,-0.125c-0.37016,-0.06007 -0.5,0 -0.625,0c-0.125,0 -0.25,0 -0.375,0c-0.125,0 -0.23159,-0.02164 -0.375,-0.125c-0.22675,-0.16343 -0.50952,-0.07716 -0.625,-0.125c-0.16332,-0.06765 -0.38451,-0.07716 -0.5,-0.125c-0.16332,-0.06765 -0.25,-0.25 -0.5,-0.25l-0.125,0l-0.25,0" id="svg_3" stroke="#000000" fill="none"/>
  <path d="m14.0625,11.5c0.25,0 0.5,0 0.625,0c0.25,0 0.375,-0.125 0.5,-0.125l0.125,0" id="svg_4" stroke="#000000" fill="none"/>
  <path d="m13.0625,26c0,0 -0.13399,0.36916 -0.375,0.75c-0.38976,0.6159 -0.86628,0.93436 -1.25,1.75c-0.55555,1.18089 -0.72424,2.01093 -1,2.625c-0.34351,0.76494 -0.56234,1.11834 -0.625,2c-0.04431,0.62343 -0.07716,1.00951 -0.125,1.125c-0.06765,0.16332 -0.125,0.375 -0.125,0.625c0,0.25 0,0.5 0,0.75c0,0.25 0,0.75 0,1.125c0,0.125 0,0.375 0,0.625c0,0.25 0,0.5 0,0.625c0,0.125 0,0.25 0,0.375c0,0.25 0,0.375 0,0.625l0,0.125l0,0.125" id="svg_5" stroke="#000000" fill="none"/>
  <path d="m22.9375,23.625c0.125,0 0.375,0 0.75,0.125c0.375,0.125 0.69146,0.56463 1.375,1.125c0.34854,0.28573 0.96318,0.66827 1.25,0.875c0.22675,0.16343 0.53734,0.10263 0.75,0.5c0.11796,0.22042 0.37156,0.58094 0.5,1.125c0.11488,0.48662 0.14347,0.74293 0.375,1.375c0.13596,0.37117 0.33496,1.25323 0.375,1.5c0.06332,0.39018 0.18235,0.58668 0.25,0.75c0.09567,0.23097 -0.14351,0.40355 0,0.75c0.06765,0.16332 0.16384,0.26003 0.25,0.625c0.06422,0.27203 0.19799,0.50362 0.25,0.875c0.12622,0.90122 0.39304,0.99177 0.5,1.25c0.15127,0.3652 0.63452,1.45216 0.75,1.5c0.16332,0.06765 0.25,0.25 0.375,0.375l0.125,0" id="svg_6" stroke="#000000" fill="none"/>
  <path d="m12.8125,16.125c0.125,0 0.25,0 0.5,0c0.125,0 0.25,0 0.375,0c0.125,0 0.25,0 0.375,0l0.125,0" id="svg_7" stroke="#000000" fill="none"/>
  <path d="m18.9375,15.875c0.125,0 0.25,0 0.375,0c0.25,0 0.53661,-0.03661 0.625,-0.125c0.17678,-0.17678 0.375,0 0.5,0l0.125,0" id="svg_8" stroke="#000000" fill="none"/>
  <path d="m16.5625,19.25c-0.125,0 -0.625,0 -1,0c-0.5,0 -1,0 -1.75,0c-0.375,0 -0.65355,0.14351 -1,0c-0.16332,-0.06765 -0.25,-0.125 -0.375,-0.25l-0.125,0" id="svg_9" stroke="#000000" fill="none"/>
  <path d="m12.8125,20.875c0.125,-0.125 0.50669,-0.06756 0.75,-0.125c0.54406,-0.12844 0.75669,-0.31756 1,-0.375c0.27203,-0.06422 0.39403,-0.15433 0.625,-0.25c0.16332,-0.06765 0.25,-0.25 0.375,-0.25l0.5,-0.25l0.125,-0.125" id="svg_10" stroke="#000000" fill="none"/>
  <path d="m20.3125,17.125c0,0.25 -0.11062,0.28429 -0.375,0.375c-0.60288,0.20685 -1.0098,0.22373 -1.375,0.375c-0.25823,0.10696 -0.61347,0.18703 -1.125,0.25c-0.12406,0.01527 -0.21168,0.05735 -0.375,0.125c-0.11548,0.04784 -0.16161,0.03661 -0.25,0.125c-0.08839,0.08839 -0.27164,0.23159 -0.375,0.375c-0.16343,0.22675 -0.25,0.5 -0.375,0.625l0,0.125" id="svg_11" stroke="#000000" fill="none"/>
  <path d="m21.6875,19.75c0,0 -0.125,0 -0.375,0c-0.125,0 -0.5,0 -0.625,0c-0.125,0 -0.25,0 -0.5,0c-0.25,0 -0.5,0 -0.75,0c-0.125,0 -0.25,0 -0.375,0c-0.25,0 -0.5,0 -0.75,0c-0.125,0 -0.25,0 -0.375,0c-0.25,0 -0.375,0 -0.5,0c-0.125,0 -0.25,0 -0.375,0c-0.25,0 -0.375,0 -0.5,0l0,-0.125l0,-0.125" id="svg_12" stroke="#000000" fill="none"/>
  <path d="m13.8125,22.125c0.125,0 0.27646,-0.08927 0.625,-0.375c0.27342,-0.22415 0.60305,-0.26224 0.75,-0.5c0.06572,-0.10633 0.125,-0.125 0.25,-0.375c0.125,-0.25 0.125,-0.5 0.375,-0.875l0.125,-0.375l0.125,-0.125" id="svg_13" stroke="#000000" fill="none"/>
  <path d="m15.5625,23.875c0.125,0 0.26903,0.09567 0.5,0c0.16332,-0.06765 0.58668,-0.30735 0.75,-0.375c0.11548,-0.04784 0.375,-0.125 0.5,-0.125c0.125,0 0.21168,-0.05735 0.375,-0.125c0.11548,-0.04784 0.125,-0.125 0.375,-0.125c0.125,0 0.21168,-0.05735 0.375,-0.125c0.23097,-0.09567 0.375,0 0.5,0c0.125,0 0.25,-0.125 0.5,-0.125l0.125,0" id="svg_14" stroke="#000000" fill="none"/>
  <path d="m15.9375,20c0.125,0 0.25,0 0.375,0c0.125,0 0.5,0.125 0.625,0.125c0.125,0 0.46168,0.05735 0.625,0.125c0.11548,0.04784 0.25,0 0.375,0c0.125,0 0.21318,0.04327 0.5,0.25c0.22675,0.16343 0.5,0.25 1.25,0.75l0.375,0.25l0.25,0.125" id="svg_15" stroke-linecap="null" stroke-linejoin="null" stroke="#000000" fill="#7f7f7f"/>
 </g>
</svg>
